<svg width="411" height="731" viewBox="0 0 411 731" fill="none" xmlns="http://www.w3.org/2000/svg">
<g clip-path="url(#clip0)">
<rect width="411" height="731" fill="#FFEC45"/>
<path d="M313.08 452.622L156.294 486.5L214.706 325.926L313.08 452.622Z" fill="#87CC3B"/>
<path d="M216.768 670.132L63.6541 823.696L0.231447 658.391L216.768 670.132Z" fill="#F2AC6D"/>
<path d="M235.372 6.67943L404.936 46.1777L296.468 169.711L235.372 6.67943Z" fill="#FED0C7"/>
<path d="M2.4332 371.604L132.904 391.287L38.8255 498.433L2.4332 371.604Z" fill="#E47381"/>
<path d="M217.163 -35.2436L122.869 236.069L-47.8985 75.4101L217.163 -35.2436Z" fill="#E25843"/>
<path d="M419.737 435.733L242.739 324.858L345.386 240.557L419.737 435.733Z" fill="#2B6FA7"/>
<circle cx="196.668" cy="218.467" r="64.2379" fill="#F2AC6D"/>
<circle cx="68.2731" cy="280.145" r="42.399" fill="#2B6FA7"/>
<ellipse cx="319.623" cy="604.932" rx="92.1564" ry="93.5964" fill="#E47381"/>
<circle cx="118.03" cy="574.693" r="60.4777" fill="#FED0C7"/>
</g>
<defs>
<clipPath id="clip0">
<rect width="411" height="731" fill="white"/>
</clipPath>
</defs>
</svg>
